<svg xmlns="http://www.w3.org/2000/svg" width="1350" height="982" viewBox="0 0 1350 982">
  <g>
    <rect width="600" height="450" fill="#e57547"/>
    <g>
      <path d="M413.761,251.266l-5.041,15.265h-6.48L418.729,218h7.561l16.561,48.532h-6.7l-5.184-15.265Zm15.913-4.9L424.921,232.4c-1.08-3.169-1.8-6.049-2.52-8.857h-.144c-.72,2.88-1.512,5.832-2.448,8.785l-4.752,14.041Z" transform="translate(-272 -48)" fill="#fff"/>
      <path d="M449.544,241.113c0-3.6-.071-6.553-.288-9.433H454.8l.288,5.616h.216a12.012,12.012,0,0,1,10.945-6.408,10.3,10.3,0,0,1,9.865,6.984h.144a14.355,14.355,0,0,1,3.888-4.536,11.9,11.9,0,0,1,7.7-2.448c4.608,0,11.449,3.024,11.449,15.121v20.522h-6.193V246.8c0-6.7-2.448-10.729-7.56-10.729a8.2,8.2,0,0,0-7.489,5.761,10.434,10.434,0,0,0-.5,3.168v21.53h-6.193V245.649c0-5.545-2.448-9.577-7.272-9.577-3.961,0-6.841,3.168-7.849,6.337a8.734,8.734,0,0,0-.5,3.1v21.026h-6.193Z" transform="translate(-272 -48)" fill="#fff"/>
      <path d="M509.3,266.531c.144-2.376.288-5.905.288-9V215.406h6.265V237.3H516c2.232-3.888,6.265-6.408,11.881-6.408,8.641,0,14.761,7.2,14.689,17.785,0,12.457-7.848,18.65-15.625,18.65-5.041,0-9.073-1.944-11.665-6.552h-.216l-.288,5.76Zm6.553-13.969a11.862,11.862,0,0,0,.288,2.3,9.778,9.778,0,0,0,9.5,7.416c6.624,0,10.585-5.4,10.585-13.393,0-6.984-3.6-12.961-10.369-12.961a10.1,10.1,0,0,0-9.649,7.777,12.487,12.487,0,0,0-.36,2.592Z" transform="translate(-272 -48)" fill="#fff"/>
      <path d="M579.722,257.026c0,3.6.072,6.768.288,9.5h-5.617l-.36-5.689h-.144a13.113,13.113,0,0,1-11.521,6.481c-5.472,0-12.025-3.025-12.025-15.265V231.68h6.337v19.3c0,6.624,2.016,11.088,7.777,11.088a9.16,9.16,0,0,0,8.352-5.76,9.267,9.267,0,0,0,.576-3.241V231.68h6.337Z" transform="translate(-272 -48)" fill="#fff"/>
      <path d="M590.231,215.406h6.336v51.125h-6.336Z" transform="translate(-272 -48)" fill="#fff"/>
      <path d="M626.52,266.531l-.5-4.393H625.8a12.981,12.981,0,0,1-10.657,5.185c-7.057,0-10.657-4.969-10.657-10.009,0-8.425,7.489-13.033,20.954-12.961v-.72c0-2.881-.792-8.065-7.921-8.065a17.369,17.369,0,0,0-9.073,2.592l-1.44-4.176a21.634,21.634,0,0,1,11.449-3.1c10.657,0,13.25,7.272,13.25,14.257v13.033a49.188,49.188,0,0,0,.575,8.353Zm-.936-17.786c-6.913-.144-14.761,1.08-14.761,7.849,0,4.1,2.736,6.049,5.976,6.049a8.672,8.672,0,0,0,8.425-5.833,6.613,6.613,0,0,0,.36-2.016Z" transform="translate(-272 -48)" fill="#fff"/>
      <path d="M641.926,241.113c0-3.6-.072-6.553-.288-9.433h5.617l.36,5.76h.144a12.816,12.816,0,0,1,11.521-6.552c4.824,0,12.313,2.88,12.313,14.833v20.81h-6.337v-20.09c0-5.616-2.088-10.3-8.064-10.3a9,9,0,0,0-8.5,6.481,9.11,9.11,0,0,0-.432,2.952v20.954h-6.337Z" transform="translate(-272 -48)" fill="#fff"/>
      <path d="M706.728,265.235a23.347,23.347,0,0,1-10.009,2.016c-10.513,0-17.354-7.129-17.354-17.786,0-10.729,7.345-18.506,18.722-18.506a21.183,21.183,0,0,1,8.785,1.8l-1.44,4.9A14.7,14.7,0,0,0,698.087,236c-7.993,0-12.313,5.905-12.313,13.177,0,8.065,5.184,13.033,12.1,13.033a18,18,0,0,0,7.776-1.728Z" transform="translate(-272 -48)" fill="#fff"/>
      <path d="M717.238,250.257c.144,8.569,5.616,12.1,11.953,12.1a22.917,22.917,0,0,0,9.649-1.8l1.08,4.537a28.231,28.231,0,0,1-11.593,2.16c-10.729,0-17.138-7.057-17.138-17.57s6.193-18.793,16.346-18.793c11.377,0,14.4,10.008,14.4,16.417a23.9,23.9,0,0,1-.216,2.952Zm18.577-4.536c.073-4.033-1.656-10.3-8.784-10.3-6.409,0-9.217,5.905-9.721,10.3Z" transform="translate(-272 -48)" fill="#fff"/>
      <path d="M488.1,302.958c-5.256,7.057-9.073,16.418-9.073,29.451,0,12.817,3.96,22.034,9.073,29.235h-4.969c-4.536-5.977-9.432-15.194-9.432-29.235.071-14.185,4.9-23.4,9.432-29.451Z" transform="translate(-272 -48)" fill="#fff"/>
      <path d="M493.932,346.45a16.605,16.605,0,0,0,8.352,2.52c4.609,0,6.769-2.3,6.769-5.184,0-3.024-1.8-4.681-6.481-6.409-6.264-2.232-9.217-5.688-9.217-9.864,0-5.617,4.537-10.225,12.025-10.225a17.4,17.4,0,0,1,8.569,2.16l-1.584,4.608a13.563,13.563,0,0,0-7.129-2.016c-3.744,0-5.832,2.16-5.832,4.752,0,2.881,2.088,4.177,6.624,5.905,6.049,2.3,9.145,5.328,9.145,10.513,0,6.121-4.752,10.441-13.033,10.441a19.866,19.866,0,0,1-9.793-2.377Z" transform="translate(-272 -48)" fill="#fff"/>
      <path d="M525.611,318.08l7.633,20.593c.792,2.305,1.656,5.041,2.232,7.129h.144c.649-2.088,1.368-4.752,2.233-7.273l6.912-20.449h6.7l-9.5,24.842C537.42,354.875,534.324,361,530,364.74a17.166,17.166,0,0,1-7.777,4.1l-1.584-5.328a16.777,16.777,0,0,0,5.545-3.1,19.21,19.21,0,0,0,5.328-7.056,4.555,4.555,0,0,0,.5-1.512,5.529,5.529,0,0,0-.432-1.657L518.7,318.08Z" transform="translate(-272 -48)" fill="#fff"/>
      <path d="M557.219,327.513c0-3.6-.072-6.553-.288-9.433h5.616l.36,5.76h.144a12.816,12.816,0,0,1,11.521-6.552c4.825,0,12.313,2.88,12.313,14.833v20.81h-6.336v-20.09c0-5.616-2.088-10.3-8.065-10.3a9,9,0,0,0-8.5,6.48,9.121,9.121,0,0,0-.432,2.953v20.954h-6.336Z" transform="translate(-272 -48)" fill="#fff"/>
      <path d="M604.523,308.071V318.08H613.6V322.9h-9.073V341.7c0,4.32,1.224,6.768,4.752,6.768a14.1,14.1,0,0,0,3.673-.432l.288,4.753a15.516,15.516,0,0,1-5.617.864,8.777,8.777,0,0,1-6.84-2.665c-1.8-1.872-2.448-4.968-2.448-9.072V322.9h-5.4V318.08h5.4v-8.353Z" transform="translate(-272 -48)" fill="#fff"/>
      <path d="M620.722,301.806h6.336v21.746h.144a11.753,11.753,0,0,1,4.537-4.464,13.04,13.04,0,0,1,6.48-1.8c4.681,0,12.169,2.88,12.169,14.9v20.738h-6.336V332.913c0-5.617-2.088-10.369-8.065-10.369a9.106,9.106,0,0,0-8.5,6.336,7.679,7.679,0,0,0-.432,3.025v21.026h-6.336Z" transform="translate(-272 -48)" fill="#fff"/>
      <path d="M656.865,361.644c5.113-7.129,9.073-16.49,9.073-29.451,0-12.889-3.889-22.106-9.073-29.235h4.9c4.609,5.9,9.433,15.122,9.433,29.307,0,14.113-4.824,23.258-9.433,29.379Z" transform="translate(-272 -48)" fill="#fff"/>
    </g>
  </g>
  <g>
    <rect x="750" width="600" height="450" fill="#cab3dd"/>
    <g>
      <path d="M1142.854,185.208a72.588,72.588,0,0,1,12.025-.937c6.192,0,10.728,1.44,13.609,4.033a13.047,13.047,0,0,1,4.248,10.153c0,4.392-1.3,7.848-3.744,10.369-3.312,3.528-8.713,5.328-14.834,5.328a21.566,21.566,0,0,1-5.04-.432v19.442h-6.264Zm6.264,23.4a20.967,20.967,0,0,0,5.185.5c7.56,0,12.169-3.672,12.169-10.368,0-6.409-4.536-9.5-11.45-9.5a26.287,26.287,0,0,0-5.9.5Z" transform="translate(-272 -48)" fill="#fff"/>
      <path d="M1198.368,233.164l-.5-4.393h-.216a12.981,12.981,0,0,1-10.657,5.185c-7.056,0-10.657-4.969-10.657-10.009,0-8.425,7.489-13.033,20.954-12.961v-.72c0-2.881-.792-8.065-7.921-8.065a17.363,17.363,0,0,0-9.072,2.592l-1.441-4.176a21.635,21.635,0,0,1,11.45-3.1c10.657,0,13.249,7.272,13.249,14.257v13.033a49.078,49.078,0,0,0,.576,8.353Zm-.935-17.786c-6.913-.144-14.762,1.08-14.762,7.849,0,4.1,2.736,6.048,5.976,6.048a8.671,8.671,0,0,0,8.425-5.832,6.615,6.615,0,0,0,.361-2.016Z" transform="translate(-272 -48)" fill="#fff"/>
      <path d="M1213.773,207.746c0-3.6-.071-6.553-.288-9.434h5.618l.359,5.761h.144a12.816,12.816,0,0,1,11.521-6.552c4.825,0,12.313,2.88,12.313,14.833v20.81H1237.1v-20.09c0-5.616-2.088-10.3-8.065-10.3a9,9,0,0,0-8.5,6.48,9.121,9.121,0,0,0-.432,2.953v20.954h-6.337Z" transform="translate(-272 -48)" fill="#fff"/>
      <path d="M1253.733,182.039h6.337v21.746h.144a11.767,11.767,0,0,1,4.537-4.464,13.04,13.04,0,0,1,6.48-1.8c4.681,0,12.169,2.88,12.169,14.905v20.738h-6.337V213.146c0-5.617-2.087-10.369-8.064-10.369a9.1,9.1,0,0,0-8.5,6.336,7.7,7.7,0,0,0-.432,3.025v21.026h-6.337Z" transform="translate(-272 -48)" fill="#fff"/>
      <path d="M1312.99,233.164l-.5-4.393h-.215a12.984,12.984,0,0,1-10.658,5.185c-7.056,0-10.657-4.969-10.657-10.009,0-8.425,7.489-13.033,20.954-12.961v-.72c0-2.881-.792-8.065-7.921-8.065a17.363,17.363,0,0,0-9.072,2.592l-1.44-4.176a21.629,21.629,0,0,1,11.449-3.1c10.657,0,13.249,7.272,13.249,14.257v13.033a49.078,49.078,0,0,0,.576,8.353Zm-.935-17.786c-6.913-.144-14.762,1.08-14.762,7.849,0,4.1,2.736,6.048,5.977,6.048a8.669,8.669,0,0,0,8.424-5.832,6.615,6.615,0,0,0,.361-2.016Z" transform="translate(-272 -48)" fill="#fff"/>
      <path d="M1328.4,207.746c0-3.6-.071-6.553-.288-9.434h5.618l.359,5.761h.144a12.816,12.816,0,0,1,11.521-6.552c4.825,0,12.313,2.88,12.313,14.833v20.81h-6.336v-20.09c0-5.616-2.088-10.3-8.065-10.3a9,9,0,0,0-8.5,6.48,9.121,9.121,0,0,0-.432,2.953v20.954H1328.4Z" transform="translate(-272 -48)" fill="#fff"/>
      <path d="M1398.454,182.039v42.124c0,3.1.072,6.625.288,9h-5.688l-.288-6.049h-.144c-1.944,3.888-6.192,6.841-11.881,6.841-8.425,0-14.9-7.129-14.9-17.714-.072-11.593,7.128-18.721,15.625-18.721,5.328,0,8.929,2.52,10.513,5.328h.144v-20.81Zm-6.336,30.459a11.193,11.193,0,0,0-.288-2.665,9.318,9.318,0,0,0-9.144-7.344c-6.553,0-10.442,5.761-10.442,13.465,0,7.057,3.456,12.889,10.3,12.889a9.526,9.526,0,0,0,9.289-7.56,11.019,11.019,0,0,0,.288-2.737Z" transform="translate(-272 -48)" fill="#fff"/>
      <path d="M1408.964,182.039h6.336v51.125h-6.336Z" transform="translate(-272 -48)" fill="#fff"/>
      <path d="M1429.483,216.89c.145,8.569,5.618,12.1,11.954,12.1a22.917,22.917,0,0,0,9.649-1.8l1.08,4.537a28.25,28.25,0,0,1-11.594,2.16c-10.728,0-17.136-7.057-17.136-17.57s6.192-18.793,16.344-18.793c11.377,0,14.4,10.008,14.4,16.417a23.9,23.9,0,0,1-.216,2.952Zm18.579-4.536c.072-4.033-1.657-10.3-8.786-10.3-6.408,0-9.216,5.9-9.72,10.3Z" transform="translate(-272 -48)" fill="#fff"/>
      <path d="M1462.026,209.186c0-4.105-.071-7.633-.288-10.874h5.545l.216,6.841h.288c1.584-4.68,5.4-7.632,9.65-7.632a6.853,6.853,0,0,1,1.8.215v5.977a9.518,9.518,0,0,0-2.16-.216c-4.465,0-7.633,3.384-8.5,8.137a17.942,17.942,0,0,0-.288,2.952v18.578h-6.265Z" transform="translate(-272 -48)" fill="#fff"/>
      <path d="M1477.65,242.021a103.643,103.643,0,0,0,4.321-17.21l7.056-.72c-1.656,6.12-4.824,14.113-6.84,17.5Z" transform="translate(-272 -48)" fill="#fff"/>
      <path d="M1144.367,318.268a23.358,23.358,0,0,1-10.009,2.016c-10.513,0-17.353-7.129-17.353-17.786,0-10.729,7.345-18.506,18.722-18.506a21.2,21.2,0,0,1,8.784,1.8l-1.44,4.9a14.693,14.693,0,0,0-7.344-1.656c-7.994,0-12.314,5.9-12.314,13.177,0,8.065,5.185,13.033,12.1,13.033a18.009,18.009,0,0,0,7.777-1.728Z" transform="translate(-272 -48)" fill="#fff"/>
      <path d="M1182.888,301.85c0,12.889-8.929,18.5-17.354,18.5-9.432,0-16.705-6.912-16.705-17.929,0-11.665,7.633-18.506,17.281-18.506C1176.119,283.92,1182.888,291.193,1182.888,301.85Zm-27.651.36c0,7.633,4.393,13.393,10.585,13.393,6.049,0,10.585-5.688,10.585-13.537,0-5.9-2.952-13.393-10.441-13.393S1155.237,295.585,1155.237,302.21Z" transform="translate(-272 -48)" fill="#fff"/>
      <path d="M1190.876,294.146c0-3.6-.071-6.553-.288-9.434h5.617l.359,5.761h.145a12.817,12.817,0,0,1,11.52-6.553c4.826,0,12.314,2.881,12.314,14.834v20.809h-6.337V299.474c0-5.617-2.088-10.3-8.064-10.3a9,9,0,0,0-8.5,6.48,9.094,9.094,0,0,0-.432,2.953v20.953h-6.337Z" transform="translate(-272 -48)" fill="#fff"/>
      <path d="M1232.35,284.712l6.84,19.586a89.631,89.631,0,0,1,2.808,8.929h.216c.793-2.88,1.8-5.761,2.953-8.929l6.769-19.586h6.624l-13.681,34.851h-6.049l-13.249-34.851Z" transform="translate(-272 -48)" fill="#fff"/>
      <path d="M1267.341,303.29c.144,8.569,5.617,12.1,11.953,12.1a22.917,22.917,0,0,0,9.649-1.8l1.08,4.537a28.244,28.244,0,0,1-11.593,2.16c-10.729,0-17.137-7.057-17.137-17.57s6.192-18.794,16.345-18.794c11.377,0,14.4,10.009,14.4,16.418a23.7,23.7,0,0,1-.216,2.952Zm18.578-4.536c.072-4.033-1.656-10.3-8.785-10.3-6.408,0-9.217,5.9-9.721,10.3Z" transform="translate(-272 -48)" fill="#fff"/>
      <path d="M1299.884,295.585c0-4.1-.072-7.632-.288-10.873h5.545l.215,6.841h.289c1.584-4.68,5.4-7.633,9.649-7.633a6.853,6.853,0,0,1,1.8.216v5.977a9.524,9.524,0,0,0-2.16-.216c-4.465,0-7.633,3.384-8.5,8.137a17.816,17.816,0,0,0-.289,2.952v18.577h-6.264Z" transform="translate(-272 -48)" fill="#fff"/>
      <path d="M1322.563,313.083a16.612,16.612,0,0,0,8.353,2.52c4.608,0,6.769-2.3,6.769-5.185,0-3.023-1.8-4.68-6.481-6.408-6.265-2.232-9.217-5.688-9.217-9.864,0-5.617,4.536-10.226,12.026-10.226a17.393,17.393,0,0,1,8.568,2.161L1341,290.689a13.566,13.566,0,0,0-7.129-2.016c-3.744,0-5.832,2.16-5.832,4.752,0,2.881,2.088,4.177,6.624,5.9,6.049,2.3,9.146,5.328,9.146,10.513,0,6.12-4.753,10.441-13.034,10.441a19.869,19.869,0,0,1-9.793-2.377Z" transform="translate(-272 -48)" fill="#fff"/>
      <path d="M1371.237,319.563l-.5-4.392h-.216a12.982,12.982,0,0,1-10.657,5.184c-7.056,0-10.657-4.968-10.657-10.008,0-8.425,7.488-13.034,20.954-12.961v-.72c0-2.881-.792-8.065-7.921-8.065a17.366,17.366,0,0,0-9.073,2.592l-1.439-4.176a21.628,21.628,0,0,1,11.448-3.1c10.657,0,13.25,7.273,13.25,14.258v13.033a49.065,49.065,0,0,0,.575,8.352Zm-.936-17.785c-6.912-.144-14.761,1.08-14.761,7.848,0,4.105,2.735,6.049,5.977,6.049a8.668,8.668,0,0,0,8.423-5.832,6.59,6.59,0,0,0,.361-2.016Z" transform="translate(-272 -48)" fill="#fff"/>
      <path d="M1393.988,274.7v10.008h9.073v4.825h-9.073v18.794c0,4.32,1.224,6.768,4.752,6.768a14.1,14.1,0,0,0,3.673-.432l.288,4.752a15.513,15.513,0,0,1-5.617.865,8.777,8.777,0,0,1-6.84-2.665c-1.8-1.872-2.448-4.968-2.448-9.073V289.537h-5.4v-4.825h5.4V276.36Z" transform="translate(-272 -48)" fill="#fff"/>
      <path d="M1417.243,274.919a3.924,3.924,0,0,1-7.848,0,3.861,3.861,0,0,1,3.96-3.96A3.761,3.761,0,0,1,1417.243,274.919Zm-7.056,44.644V284.712h6.336v34.851Z" transform="translate(-272 -48)" fill="#fff"/>
      <path d="M1458.573,301.85c0,12.889-8.928,18.5-17.353,18.5-9.433,0-16.7-6.912-16.7-17.929,0-11.665,7.632-18.506,17.281-18.506C1451.805,283.92,1458.573,291.193,1458.573,301.85Zm-27.65.36c0,7.633,4.392,13.393,10.585,13.393,6.049,0,10.585-5.688,10.585-13.537,0-5.9-2.952-13.393-10.442-13.393S1430.923,295.585,1430.923,302.21Z" transform="translate(-272 -48)" fill="#fff"/>
      <path d="M1466.562,294.146c0-3.6-.072-6.553-.289-9.434h5.618l.359,5.761h.145a12.814,12.814,0,0,1,11.52-6.553c4.825,0,12.314,2.881,12.314,14.834v20.809h-6.337V299.474c0-5.617-2.088-10.3-8.065-10.3a9,9,0,0,0-8.5,6.48,9.121,9.121,0,0,0-.432,2.953v20.953h-6.336Z" transform="translate(-272 -48)" fill="#fff"/>
      <path d="M1505.657,313.083a16.609,16.609,0,0,0,8.353,2.52c4.608,0,6.768-2.3,6.768-5.185,0-3.023-1.8-4.68-6.48-6.408-6.265-2.232-9.217-5.688-9.217-9.864,0-5.617,4.536-10.226,12.025-10.226a17.4,17.4,0,0,1,8.569,2.161l-1.584,4.608a13.566,13.566,0,0,0-7.129-2.016c-3.744,0-5.832,2.16-5.832,4.752,0,2.881,2.088,4.177,6.624,5.9,6.049,2.3,9.145,5.328,9.145,10.513,0,6.12-4.753,10.441-13.033,10.441a19.866,19.866,0,0,1-9.793-2.377Z" transform="translate(-272 -48)" fill="#fff"/>
      <path d="M1227.634,355.991c-5.257,7.057-9.073,16.418-9.073,29.45,0,12.818,3.96,22.035,9.073,29.235h-4.969c-4.536-5.976-9.433-15.193-9.433-29.235.072-14.185,4.9-23.4,9.433-29.45Z" transform="translate(-272 -48)" fill="#fff"/>
      <path d="M1236.776,371.112l6.841,19.586a89.631,89.631,0,0,1,2.808,8.929h.216c.793-2.88,1.8-5.761,2.953-8.929l6.768-19.586h6.624l-13.68,34.851h-6.049l-13.249-34.851Z" transform="translate(-272 -48)" fill="#fff"/>
      <path d="M1299.778,388.25c0,12.889-8.928,18.5-17.353,18.5-9.433,0-16.7-6.912-16.7-17.929,0-11.665,7.633-18.506,17.281-18.506C1293.01,370.32,1299.778,377.593,1299.778,388.25Zm-27.65.36c0,7.633,4.393,13.393,10.585,13.393,6.049,0,10.585-5.689,10.585-13.537,0-5.9-2.952-13.393-10.442-13.393S1272.128,381.985,1272.128,388.61Z" transform="translate(-272 -48)" fill="#fff"/>
      <path d="M1332.609,404.667a23.338,23.338,0,0,1-10.008,2.017c-10.514,0-17.354-7.129-17.354-17.786,0-10.729,7.345-18.506,18.722-18.506a21.2,21.2,0,0,1,8.784,1.8l-1.44,4.9a14.693,14.693,0,0,0-7.344-1.656c-7.993,0-12.314,5.9-12.314,13.177,0,8.065,5.185,13.033,12.1,13.033a18,18,0,0,0,7.777-1.728Z" transform="translate(-272 -48)" fill="#fff"/>
      <path d="M1359.32,405.963l-.5-4.392h-.215a12.984,12.984,0,0,1-10.658,5.184c-7.056,0-10.657-4.968-10.657-10.008,0-8.425,7.489-13.034,20.954-12.961v-.721c0-2.88-.792-8.065-7.921-8.065a17.363,17.363,0,0,0-9.072,2.593l-1.44-4.176a21.622,21.622,0,0,1,11.449-3.1c10.657,0,13.249,7.273,13.249,14.258v13.033a49.066,49.066,0,0,0,.576,8.352Zm-.935-17.785c-6.913-.144-14.762,1.08-14.762,7.848,0,4.1,2.736,6.049,5.977,6.049a8.669,8.669,0,0,0,8.424-5.832,6.615,6.615,0,0,0,.361-2.016Z" transform="translate(-272 -48)" fill="#fff"/>
      <path d="M1374.727,354.839h6.336v51.124h-6.336Z" transform="translate(-272 -48)" fill="#fff"/>
      <path d="M1390.854,399.483a16.609,16.609,0,0,0,8.353,2.52c4.608,0,6.769-2.3,6.769-5.185,0-3.024-1.8-4.68-6.481-6.408-6.265-2.232-9.217-5.688-9.217-9.865,0-5.616,4.536-10.225,12.025-10.225a17.408,17.408,0,0,1,8.569,2.16l-1.584,4.609a13.566,13.566,0,0,0-7.129-2.016c-3.744,0-5.833,2.16-5.833,4.752,0,2.881,2.089,4.176,6.625,5.9,6.049,2.305,9.145,5.329,9.145,10.514,0,6.12-4.752,10.441-13.034,10.441a19.862,19.862,0,0,1-9.792-2.377Z" transform="translate(-272 -48)" fill="#fff"/>
      <path d="M1416.413,414.676c5.113-7.129,9.073-16.489,9.073-29.45,0-12.89-3.888-22.106-9.073-29.235h4.9c4.608,5.905,9.433,15.121,9.433,29.306,0,14.114-4.825,23.259-9.433,29.379Z" transform="translate(-272 -48)" fill="#fff"/>
    </g>
  </g>
  <g>
    <rect y="532" width="600" height="450" fill="#f5c152"/>
    <g>
      <path d="M433.188,737.562l-5.04,15.265h-6.481l16.49-48.532h7.56l16.562,48.532h-6.7L450.4,737.562Zm15.914-4.9L444.349,718.7c-1.08-3.168-1.8-6.049-2.52-8.856h-.144c-.72,2.88-1.512,5.832-2.448,8.784l-4.753,14.041Z" transform="translate(-272 -48)" fill="#fff"/>
      <path d="M468.972,727.409c0-3.6-.072-6.553-.288-9.432h5.545l.288,5.616h.216a12.01,12.01,0,0,1,10.945-6.409,10.3,10.3,0,0,1,9.864,6.985h.145a14.36,14.36,0,0,1,3.888-4.537,11.893,11.893,0,0,1,7.7-2.448c4.608,0,11.449,3.024,11.449,15.122v20.521h-6.193V733.1c0-6.7-2.448-10.73-7.56-10.73a8.2,8.2,0,0,0-7.489,5.761,10.439,10.439,0,0,0-.5,3.168v21.53H490.79V731.945c0-5.545-2.448-9.577-7.272-9.577-3.961,0-6.841,3.169-7.849,6.337a8.743,8.743,0,0,0-.5,3.1v21.025h-6.193Z" transform="translate(-272 -48)" fill="#fff"/>
      <path d="M528.732,752.827c.144-2.376.288-5.9.288-9V701.7h6.265v21.89h.144c2.232-3.889,6.264-6.409,11.881-6.409,8.641,0,14.761,7.2,14.689,17.786,0,12.457-7.849,18.649-15.625,18.649-5.041,0-9.073-1.944-11.666-6.553h-.215l-.288,5.761Zm6.553-13.969a11.862,11.862,0,0,0,.288,2.3,9.777,9.777,0,0,0,9.5,7.417c6.624,0,10.585-5.4,10.585-13.393,0-6.985-3.6-12.961-10.37-12.961A10.1,10.1,0,0,0,535.645,730a12.43,12.43,0,0,0-.36,2.593Z" transform="translate(-272 -48)" fill="#fff"/>
      <path d="M577.043,708.184a3.924,3.924,0,0,1-7.848,0,3.861,3.861,0,0,1,3.96-3.961A3.761,3.761,0,0,1,577.043,708.184Zm-7.056,44.643v-34.85h6.336v34.85Z" transform="translate(-272 -48)" fill="#fff"/>
      <path d="M590.363,736.554c.144,8.568,5.616,12.1,11.953,12.1a22.935,22.935,0,0,0,9.649-1.8l1.08,4.536a28.218,28.218,0,0,1-11.593,2.16c-10.729,0-17.138-7.057-17.138-17.569s6.193-18.794,16.346-18.794c11.377,0,14.4,10.009,14.4,16.418a23.931,23.931,0,0,1-.216,2.952Zm18.577-4.536c.073-4.033-1.656-10.3-8.784-10.3-6.409,0-9.217,5.9-9.721,10.3Z" transform="translate(-272 -48)" fill="#fff"/>
      <path d="M622.906,727.409c0-3.6-.072-6.553-.288-9.432h5.616l.36,5.759h.144a12.818,12.818,0,0,1,11.521-6.552c4.825,0,12.313,2.88,12.313,14.834v20.809h-6.336v-20.09c0-5.616-2.089-10.3-8.065-10.3a9,9,0,0,0-8.5,6.481,9.11,9.11,0,0,0-.432,2.952v20.954h-6.336Z" transform="translate(-272 -48)" fill="#fff"/>
      <path d="M670.21,707.967v10.01h9.073V722.8H670.21v18.793c0,4.32,1.225,6.768,4.753,6.768a14.148,14.148,0,0,0,3.672-.431l.288,4.753a15.514,15.514,0,0,1-5.616.863,8.781,8.781,0,0,1-6.841-2.664c-1.8-1.872-2.448-4.969-2.448-9.072V722.8h-5.4v-4.824h5.4v-8.354Z" transform="translate(-272 -48)" fill="#fff"/>
      <path d="M685.545,746.347a16.616,16.616,0,0,0,8.353,2.52c4.608,0,6.769-2.3,6.769-5.184,0-3.025-1.8-4.681-6.481-6.41-6.265-2.231-9.217-5.688-9.217-9.864,0-5.617,4.536-10.225,12.025-10.225a17.386,17.386,0,0,1,8.569,2.161l-1.584,4.608a13.566,13.566,0,0,0-7.129-2.016c-3.744,0-5.832,2.16-5.832,4.751,0,2.881,2.088,4.177,6.624,5.906,6.049,2.3,9.145,5.328,9.145,10.512,0,6.121-4.752,10.441-13.033,10.441a19.877,19.877,0,0,1-9.793-2.376Z" transform="translate(-272 -48)" fill="#fff"/>
      <path d="M710.025,761.684a103.532,103.532,0,0,0,4.321-17.209l7.057-.721c-1.656,6.121-4.825,14.113-6.841,17.5Z" transform="translate(-272 -48)" fill="#fff"/>
      <path d="M468.288,832.747a16.606,16.606,0,0,0,8.353,2.521c4.608,0,6.768-2.305,6.768-5.185,0-3.024-1.8-4.681-6.48-6.409-6.265-2.232-9.217-5.689-9.217-9.864,0-5.618,4.536-10.226,12.025-10.226a17.4,17.4,0,0,1,8.569,2.161l-1.584,4.609a13.556,13.556,0,0,0-7.129-2.017c-3.744,0-5.833,2.16-5.833,4.752,0,2.881,2.089,4.177,6.625,5.9,6.049,2.3,9.145,5.328,9.145,10.513,0,6.12-4.753,10.44-13.033,10.44a19.864,19.864,0,0,1-9.793-2.376Z" transform="translate(-272 -48)" fill="#fff"/>
      <path d="M505.3,794.367v10.01h9.073V809.2H505.3v18.793c0,4.32,1.225,6.769,4.753,6.769a14.1,14.1,0,0,0,3.672-.432l.288,4.753a15.514,15.514,0,0,1-5.616.863,8.778,8.778,0,0,1-6.841-2.664c-1.8-1.872-2.448-4.969-2.448-9.072V809.2h-5.4v-4.824h5.4v-8.354Z" transform="translate(-272 -48)" fill="#fff"/>
      <path d="M521.5,815.249c0-4.1-.072-7.632-.288-10.872h5.544l.217,6.84h.288c1.584-4.68,5.4-7.633,9.649-7.633a6.809,6.809,0,0,1,1.8.217v5.976a9.521,9.521,0,0,0-2.161-.216c-4.464,0-7.632,3.384-8.5,8.136a17.857,17.857,0,0,0-.288,2.953v18.578H521.5Z" transform="translate(-272 -48)" fill="#fff"/>
      <path d="M552.383,794.584a3.924,3.924,0,0,1-7.848,0,3.862,3.862,0,0,1,3.96-3.961A3.762,3.762,0,0,1,552.383,794.584Zm-7.056,44.644V804.377h6.336v34.851Z" transform="translate(-272 -48)" fill="#fff"/>
      <path d="M562.174,813.81c0-3.6-.071-6.553-.288-9.433H567.5l.36,5.76h.144a12.817,12.817,0,0,1,11.521-6.553c4.825,0,12.313,2.881,12.313,14.834v20.81H585.5v-20.09c0-5.617-2.088-10.3-8.064-10.3a9,9,0,0,0-8.5,6.48,9.11,9.11,0,0,0-.432,2.952v20.955h-6.337Z" transform="translate(-272 -48)" fill="#fff"/>
      <path d="M632.161,804.377c-.144,2.519-.288,5.328-.288,9.576v20.235c0,7.992-1.585,12.888-4.969,15.913-3.384,3.168-8.28,4.175-12.673,4.175-4.176,0-8.785-1.007-11.593-2.88l1.584-4.824a19.642,19.642,0,0,0,10.225,2.737c6.481,0,11.233-3.385,11.233-12.169v-3.889h-.144c-1.944,3.24-5.688,5.833-11.089,5.833-8.641,0-14.833-7.345-14.833-16.994,0-11.809,7.7-18.506,15.7-18.506,6.048,0,9.361,3.169,10.873,6.049h.144l.288-5.256Zm-6.553,13.753a9.03,9.03,0,0,0-.36-2.881,9.127,9.127,0,0,0-8.857-6.7c-6.048,0-10.369,5.112-10.369,13.177,0,6.84,3.457,12.529,10.3,12.529a9.262,9.262,0,0,0,8.785-6.481,11.017,11.017,0,0,0,.5-3.383Z" transform="translate(-272 -48)" fill="#fff"/>
      <path d="M641.517,832.747a16.606,16.606,0,0,0,8.353,2.521c4.608,0,6.768-2.305,6.768-5.185,0-3.024-1.8-4.681-6.48-6.409-6.265-2.232-9.217-5.689-9.217-9.864,0-5.618,4.536-10.226,12.025-10.226a17.4,17.4,0,0,1,8.569,2.161l-1.584,4.609a13.556,13.556,0,0,0-7.129-2.017c-3.744,0-5.833,2.16-5.833,4.752,0,2.881,2.089,4.177,6.625,5.9,6.049,2.3,9.145,5.328,9.145,10.513,0,6.12-4.753,10.44-13.033,10.44a19.864,19.864,0,0,1-9.793-2.376Z" transform="translate(-272 -48)" fill="#fff"/>
      <path d="M666,848.084a103.605,103.605,0,0,0,4.321-17.209l7.057-.721c-1.657,6.121-4.825,14.114-6.841,17.5Z" transform="translate(-272 -48)" fill="#fff"/>
      <path d="M538.127,911.874,537.983,910c-.432-3.889.865-8.137,4.465-12.457,3.24-3.816,5.04-6.625,5.04-9.865,0-3.672-2.3-6.12-6.841-6.193a12.8,12.8,0,0,0-7.272,2.233l-1.728-4.537c2.376-1.728,6.48-2.88,10.3-2.88,8.281,0,12.025,5.112,12.025,10.585,0,4.9-2.737,8.424-6.193,12.529-3.168,3.744-4.32,6.912-4.1,10.585l.072,1.872Zm-1.584,10.081a4.258,4.258,0,0,1,4.321-4.537,4.506,4.506,0,1,1-4.321,4.537Z" transform="translate(-272 -48)" fill="#fff"/>
      <path d="M567.359,911.874,567.215,910c-.432-3.889.864-8.137,4.464-12.457,3.24-3.816,5.041-6.625,5.041-9.865,0-3.672-2.3-6.12-6.841-6.193a12.8,12.8,0,0,0-7.273,2.233l-1.728-4.537c2.376-1.728,6.481-2.88,10.3-2.88,8.281,0,12.025,5.112,12.025,10.585,0,4.9-2.736,8.424-6.192,12.529-3.169,3.744-4.32,6.912-4.105,10.585l.073,1.872Zm-1.584,10.081a4.257,4.257,0,0,1,4.32-4.537,4.506,4.506,0,1,1-4.32,4.537Z" transform="translate(-272 -48)" fill="#fff"/>
      <path d="M596.59,911.874,596.446,910c-.432-3.889.865-8.137,4.465-12.457,3.24-3.816,5.04-6.625,5.04-9.865,0-3.672-2.3-6.12-6.841-6.193a12.8,12.8,0,0,0-7.272,2.233l-1.728-4.537c2.376-1.728,6.48-2.88,10.3-2.88,8.281,0,12.025,5.112,12.025,10.585,0,4.9-2.737,8.424-6.193,12.529-3.168,3.744-4.32,6.912-4.1,10.585l.072,1.872Zm-1.584,10.081a4.258,4.258,0,0,1,4.321-4.537,4.506,4.506,0,1,1-4.321,4.537Z" transform="translate(-272 -48)" fill="#fff"/>
    </g>
  </g>
  <g>
    <rect x="750" y="532" width="600" height="450" fill="#6042eb"/>
    <g>
      <path d="M1180.459,756.132H1206.6v5.257h-19.873v16.129h18.361V782.7h-18.361v21.962h-6.265Z" transform="translate(-272 -48)" fill="#fff"/>
      <path d="M1244.614,786.95c0,12.89-8.928,18.506-17.353,18.506-9.433,0-16.7-6.912-16.7-17.93,0-11.665,7.632-18.5,17.281-18.5C1237.846,769.021,1244.614,776.294,1244.614,786.95Zm-27.65.361c0,7.632,4.392,13.393,10.585,13.393,6.049,0,10.585-5.688,10.585-13.537,0-5.905-2.952-13.394-10.441-13.394S1216.964,780.686,1216.964,787.311Z" transform="translate(-272 -48)" fill="#fff"/>
      <path d="M1284.142,786.95c0,12.89-8.929,18.506-17.354,18.506-9.433,0-16.7-6.912-16.7-17.93,0-11.665,7.633-18.5,17.281-18.5C1277.373,769.021,1284.142,776.294,1284.142,786.95Zm-27.651.361c0,7.632,4.393,13.393,10.585,13.393,6.049,0,10.585-5.688,10.585-13.537,0-5.905-2.952-13.394-10.44-13.394S1256.491,780.686,1256.491,787.311Z" transform="translate(-272 -48)" fill="#fff"/>
      <path d="M1299.763,759.8v10.009h9.073v4.825h-9.073v18.793c0,4.321,1.224,6.768,4.753,6.768a14.148,14.148,0,0,0,3.672-.431l.288,4.753a15.538,15.538,0,0,1-5.617.863,8.78,8.78,0,0,1-6.84-2.664c-1.8-1.872-2.449-4.968-2.449-9.073V774.638h-5.4v-4.825h5.4V761.46Z" transform="translate(-272 -48)" fill="#fff"/>
      <path d="M1315.1,798.184a16.615,16.615,0,0,0,8.352,2.52c4.609,0,6.769-2.3,6.769-5.184,0-3.025-1.8-4.681-6.481-6.41-6.264-2.231-9.217-5.688-9.217-9.864,0-5.617,4.537-10.225,12.026-10.225a17.382,17.382,0,0,1,8.568,2.161l-1.584,4.608a13.562,13.562,0,0,0-7.129-2.017c-3.744,0-5.832,2.161-5.832,4.752,0,2.881,2.088,4.177,6.624,5.906,6.049,2.3,9.145,5.328,9.145,10.512,0,6.12-4.752,10.441-13.032,10.441a19.874,19.874,0,0,1-9.793-2.376Z" transform="translate(-272 -48)" fill="#fff"/>
      <path d="M1352.106,759.8v10.009h9.074v4.825h-9.074v18.793c0,4.321,1.225,6.768,4.753,6.768a14.141,14.141,0,0,0,3.672-.431l.288,4.753a15.532,15.532,0,0,1-5.616.863,8.784,8.784,0,0,1-6.841-2.664c-1.8-1.872-2.448-4.968-2.448-9.073V774.638h-5.4v-4.825h5.4V761.46Z" transform="translate(-272 -48)" fill="#fff"/>
      <path d="M1371.4,788.391c.144,8.568,5.617,12.1,11.953,12.1a22.932,22.932,0,0,0,9.649-1.8l1.08,4.536a28.231,28.231,0,0,1-11.593,2.16c-10.729,0-17.137-7.057-17.137-17.57s6.192-18.793,16.345-18.793c11.377,0,14.4,10.009,14.4,16.417a23.934,23.934,0,0,1-.216,2.953Zm18.577-4.537c.073-4.032-1.656-10.3-8.785-10.3-6.408,0-9.216,5.9-9.72,10.3Z" transform="translate(-272 -48)" fill="#fff"/>
      <path d="M1403.945,781.19c0-4.464-.144-8.065-.288-11.377h5.689l.288,5.977h.143a13.7,13.7,0,0,1,12.385-6.769c8.425,0,14.762,7.128,14.762,17.713,0,12.53-7.633,18.722-15.842,18.722-4.608,0-8.641-2.016-10.728-5.473h-.145v18.938h-6.264Zm6.264,9.289a14.357,14.357,0,0,0,.288,2.592,9.777,9.777,0,0,0,9.5,7.416c6.7,0,10.585-5.471,10.585-13.465,0-6.984-3.672-12.96-10.368-12.96a10.109,10.109,0,0,0-9.577,7.848,10.284,10.284,0,0,0-.433,2.592Z" transform="translate(-272 -48)" fill="#fff"/>
      <path d="M1444.049,798.184a16.615,16.615,0,0,0,8.352,2.52c4.609,0,6.769-2.3,6.769-5.184,0-3.025-1.8-4.681-6.481-6.41-6.264-2.231-9.216-5.688-9.216-9.864,0-5.617,4.536-10.225,12.025-10.225a17.382,17.382,0,0,1,8.568,2.161l-1.584,4.608a13.561,13.561,0,0,0-7.128-2.017c-3.745,0-5.833,2.161-5.833,4.752,0,2.881,2.088,4.177,6.625,5.906,6.048,2.3,9.144,5.328,9.144,10.512,0,6.12-4.752,10.441-13.032,10.441a19.874,19.874,0,0,1-9.793-2.376Z" transform="translate(-272 -48)" fill="#fff"/>
      <path d="M1202.061,841.092c-5.257,7.056-9.074,16.418-9.074,29.451,0,12.816,3.961,22.033,9.074,29.234h-4.969c-4.536-5.976-9.433-15.193-9.433-29.234.072-14.186,4.9-23.4,9.433-29.451Z" transform="translate(-272 -48)" fill="#fff"/>
      <path d="M1208.971,843.181a65.152,65.152,0,0,1,12.024-1.009c6.7,0,11.018,1.224,14.042,3.961a12.088,12.088,0,0,1,3.817,9.217c0,6.408-4.034,10.656-9.146,12.384v.216c3.745,1.3,5.977,4.753,7.129,9.793,1.584,6.769,2.736,11.449,3.744,13.321h-6.48c-.792-1.368-1.872-5.544-3.241-11.592-1.44-6.7-4.032-9.217-9.72-9.433h-5.905v21.025h-6.264Zm6.264,22.1h6.409c6.7,0,10.945-3.672,10.945-9.217,0-6.264-4.537-9-11.161-9.072a25.845,25.845,0,0,0-6.193.575Z" transform="translate(-272 -48)" fill="#fff"/>
      <path d="M1248.138,839.94h6.336v21.746h.144a11.757,11.757,0,0,1,4.536-4.464,13.045,13.045,0,0,1,6.481-1.8c4.68,0,12.169,2.881,12.169,14.9v20.738h-6.336V871.047c0-5.616-2.089-10.369-8.066-10.369a9.1,9.1,0,0,0-8.5,6.337,7.668,7.668,0,0,0-.432,3.024v21.025h-6.336Z" transform="translate(-272 -48)" fill="#fff"/>
      <path d="M1289.467,856.214l7.633,20.594c.792,2.3,1.656,5.04,2.232,7.128h.144c.648-2.088,1.368-4.752,2.232-7.273l6.912-20.449h6.7l-9.505,24.842c-4.536,11.953-7.632,18.073-11.953,21.817a17.183,17.183,0,0,1-7.776,4.1l-1.585-5.329a16.717,16.717,0,0,0,5.545-3.1,19.2,19.2,0,0,0,5.328-7.057,4.534,4.534,0,0,0,.5-1.512,5.524,5.524,0,0,0-.432-1.656l-12.888-32.114Z" transform="translate(-272 -48)" fill="#fff"/>
      <path d="M1328.706,846.2v10.01h9.073v4.824h-9.073v18.793c0,4.321,1.225,6.769,4.753,6.769a14.1,14.1,0,0,0,3.672-.432l.288,4.753a15.514,15.514,0,0,1-5.616.863,8.781,8.781,0,0,1-6.841-2.664c-1.8-1.872-2.448-4.968-2.448-9.072v-19.01h-5.4v-4.824h5.4V847.86Z" transform="translate(-272 -48)" fill="#fff"/>
      <path d="M1344.905,839.94h6.336v21.746h.145a11.757,11.757,0,0,1,4.536-4.464,13.041,13.041,0,0,1,6.48-1.8c4.681,0,12.169,2.881,12.169,14.9v20.738h-6.336V871.047c0-5.616-2.089-10.369-8.065-10.369a9.1,9.1,0,0,0-8.5,6.337,7.649,7.649,0,0,0-.433,3.024v21.025h-6.336Z" transform="translate(-272 -48)" fill="#fff"/>
      <path d="M1384.865,865.646c0-3.6-.072-6.552-.288-9.432h5.544l.288,5.616h.216a12.013,12.013,0,0,1,10.945-6.409,10.306,10.306,0,0,1,9.866,6.985h.143a14.349,14.349,0,0,1,3.889-4.537,11.892,11.892,0,0,1,7.7-2.448c4.608,0,11.449,3.024,11.449,15.122v20.521h-6.192V871.335c0-6.7-2.449-10.73-7.561-10.73a8.206,8.206,0,0,0-7.489,5.761,10.439,10.439,0,0,0-.5,3.168v21.53h-6.192V870.183c0-5.545-2.449-9.578-7.273-9.578-3.96,0-6.841,3.169-7.848,6.337a8.72,8.72,0,0,0-.5,3.1v21.025h-6.193Z" transform="translate(-272 -48)" fill="#fff"/>
      <path d="M1441.1,899.777c5.112-7.129,9.072-16.489,9.072-29.451,0-12.888-3.888-22.105-9.072-29.234h4.9c4.609,5.9,9.433,15.122,9.433,29.306,0,14.114-4.824,23.258-9.433,29.379Z" transform="translate(-272 -48)" fill="#fff"/>
    </g>
  </g>
</svg>
